<svg width="1440" height="1024" viewBox="0 0 1440 1024" fill="none" xmlns="http://www.w3.org/2000/svg">
<path d="M918.116 946C923.841 949.846 929.948 954.077 936.055 957.923C952.466 942.154 968.497 927.154 983 916L704 974.077L708.58 1001L815.829 992.538C868.499 952.923 889.491 927.154 918.116 946Z" fill="#28160D"/>
<path d="M776 914.857L1488 325V605.701L796.321 961L776 905.244" fill="#28160D"/>
<path d="M588.041 905.75L-23 329V627.147L569.21 955.186L638 964" fill="#28160D"/>
<path d="M729.761 883H641.325L479 -968L894 -966.082L729.761 883Z" fill="#28160D"/>
<path d="M768.707 932L725 884.075L1424.69 -749.585L1493.32 -934L1496 -97.4247L768.707 932Z" fill="#28160D"/>
<path d="M646 876.219L595.336 918L-23 -93.1874L-15.3236 -920L49.926 -737.158L646 876.219Z" fill="#28160D"/>
<path d="M1076.07 912.702L1091.39 897.077L1120.86 911.559L1168.33 884.882L1186.71 906.986L1204.7 891.361L1290.84 920.705L1350.95 903.175L1409.52 927.564L1439.76 947L1488 814L1042 905.461C1050.81 913.083 1060.76 920.705 1070.71 928.327L1076.07 912.702Z" fill="#28160D"/>
<path d="M580.071 958.449L508.76 943.496C542.499 968.034 579.688 1001.01 579.688 1001.01L580.071 958.449Z" fill="#28160D"/>
<path d="M-23.0078 832.696L1.52942 909.758C1.52942 909.758 42.936 927.394 54.4378 930.461C65.9396 933.528 108.113 910.141 117.314 911.291C126.516 912.442 146.836 927.777 157.571 925.86C168.306 923.943 195.527 901.323 215.847 892.505C223.131 889.438 231.183 887.904 238.85 887.138L-23.0078 832.696Z" fill="#28160D"/>
<path d="M271.439 887.521C264.921 887.521 252.269 885.987 238.85 887.138L299.81 899.79C286.008 892.888 274.889 887.521 271.439 887.521Z" fill="#28160D"/>
<path d="M420.579 925.094L299.81 899.789C330.098 915.509 374.189 939.663 382.24 938.512C388.374 938.129 403.71 931.228 420.579 925.094Z" fill="#28160D"/>
<path d="M383 944L278.872 892.557C270.419 888.27 260.813 887.1 251.591 888.659L192.803 899.571L171.286 920.227C162.448 928.801 149 929.19 139.394 921.786L129.404 913.991C122.872 908.925 114.419 907.756 107.118 910.484L53.3251 931.139L7.60098 906.197L-2.5 944" stroke="#A06229" stroke-width="6" stroke-miterlimit="10"/>
<path d="M935 958.285L996.064 902.971C1010.75 890.001 1033.17 889.619 1048.24 902.208L1158 993" stroke="#A06229" stroke-width="6" stroke-miterlimit="10" stroke-linecap="round" stroke-linejoin="round"/>
<path d="M1066 914.829L1090.99 892.847L1118.67 911.359L1152.51 886.291C1159.05 881.277 1168.66 882.049 1174.04 888.219L1189.04 904.417L1200.95 895.547C1206.34 891.304 1213.26 890.533 1219.79 892.847L1294 921" stroke="#A06229" stroke-width="6" stroke-miterlimit="10" stroke-linecap="round" stroke-linejoin="round"/>
<path d="M801 975.503C801 977.798 801 979.71 801 982.005C800.616 986.977 800.232 991.566 799.464 996.156L767.978 1014.9L698.863 1055.82C685.808 1063.47 669.297 1062.7 657.394 1053.14L589.815 1003.81L572.152 990.802C571.384 986.212 571.384 981.623 571 977.033C571 976.651 571 975.886 571 975.503C571 970.149 571.384 965.177 572.152 959.822C572.92 952.938 574.456 946.436 576.76 939.934C578.679 934.58 580.599 929.225 583.287 923.871C586.743 917.369 590.583 910.867 595.19 905.13C598.646 900.541 602.486 896.334 606.71 892.127C612.085 887.155 617.461 882.565 623.604 878.741C628.596 875.681 633.588 873.004 638.579 870.326C644.723 867.649 651.25 865.354 658.162 863.442C663.538 861.912 669.297 861.147 675.057 860.382C678.513 860 682.352 860 686.192 860C690.8 860 695.407 860.383 700.015 860.765C705.775 861.53 711.534 862.677 716.91 864.207C723.437 866.119 729.581 868.414 735.341 871.091C740.716 873.386 745.708 876.446 750.316 879.506C757.227 884.095 763.371 889.45 769.13 895.186C772.97 899.394 776.81 903.601 780.265 908.573C784.489 914.692 788.329 920.811 791.401 927.696C793.705 933.05 795.624 938.404 797.16 943.759C799.08 950.261 800.232 957.145 801 964.029C800.616 968.236 801 972.061 801 975.503Z" fill="#AF6728"/>
<path d="M1442 955.135L1405.47 924.206L1384.7 921.943L1369.32 911.759C1356.25 902.707 1338.94 901.575 1324.72 908.365L1298.57 920.434L1248.58 952.117L1143.22 1004.55L1074 1040" stroke="#B66F2C" stroke-width="6" stroke-miterlimit="10" stroke-linejoin="round"/>
<path d="M1335 1066.76L1313.93 1047.04L1259.92 1074.72C1258.39 1075.48 1256.48 1075.86 1254.94 1075.48L1125.86 1048.94C1125.09 1048.94 1124.71 1048.56 1123.95 1048.56L1098.28 1036.42L1083.73 1041.73C1081.43 1042.49 1078.75 1042.11 1076.83 1040.97L1027.04 1007.6C1021.67 1003.81 1014.4 1003.81 1008.65 1006.84L1005.2 1008.74C1002.52 1010.26 999.074 1010.26 996.393 1007.98L920.551 947.682C911.358 940.477 898.717 939.718 888.375 945.407L783.039 1007.22L751.63 1025.8L704.516 1053.49C686.896 1063.73 665.063 1062.59 648.975 1050.07L601.095 1015.56L585.008 1004.19L473.16 923.791C458.604 913.172 439.069 912.034 423.365 921.136L378.932 946.165C378.549 946.544 378.166 946.545 377.783 946.924L194.307 1009.88L138 1077" stroke="#AF6728" stroke-width="6" stroke-miterlimit="10"/>
</svg>
