<?xml version="1.0" encoding="utf-8"?>
<!-- Generator: Adobe Illustrator 25.2.1, SVG Export Plug-In . SVG Version: 6.00 Build 0)  -->
<svg version="1.1" id="Layer_1" xmlns="http://www.w3.org/2000/svg" xmlns:xlink="http://www.w3.org/1999/xlink" x="0px" y="0px"
	 viewBox="0 0 121.8 121.8" style="enable-background:new 0 0 121.8 121.8;" xml:space="preserve">
<style type="text/css">
	.st0{fill:#CE812B;}
</style>
<path class="st0" d="M110.7,23.4H97.4v-6.7h6c0.8,0,1.5-0.7,1.5-1.5V1.5c0-0.8-0.7-1.5-1.5-1.5H26.7c-0.8,0-1.5,0.7-1.5,1.5v13.7
	c0,0.8,0.7,1.5,1.5,1.5h6v6.7h-4.1c-2.6,0-5,0.9-7,2.4C2.5,41.1-4,66.5,2.3,101.2c0.7,3.6,3.8,6.3,7.5,6.3H21
	c0.8,8,7.5,14.3,15.7,14.3c8.2,0,14.9-6.3,15.7-14.3h25.6c0.8,8,7.5,14.3,15.7,14.3c8.2,0,14.9-6.3,15.7-14.3h1.4
	c6.1,0,11.1-5,11.1-11.1V34.6C121.8,28.4,116.8,23.4,110.7,23.4z M28.2,3h73.7v10.6H28.2V3z M35.7,16.7h58.7v6.7H35.7V16.7z
	 M36.7,118.7c-7,0-12.7-5.7-12.7-12.7c0-7,5.7-12.7,12.7-12.7c7,0,12.7,5.7,12.7,12.7C49.4,113,43.7,118.7,36.7,118.7z M93.6,118.7
	c-7,0-12.7-5.7-12.7-12.7c0-7,5.7-12.7,12.7-12.7c7,0,12.7,5.7,12.7,12.7C106.3,113,100.6,118.7,93.6,118.7z M118.8,96.4
	c0,4.5-3.6,8.1-8.1,8.1h-1.4c-0.8-8-7.5-14.3-15.7-14.3c-8.2,0-14.9,6.3-15.7,14.3H52.3c-0.8-8-7.5-14.3-15.7-14.3
	c-8.2,0-14.9,6.3-15.7,14.3H9.9c-2.2,0-4.1-1.6-4.5-3.8c-6.1-33.6,0-58,18.1-72.5c1.4-1.1,3.2-1.8,5.1-1.8h82.2
	c4.5,0,8.1,3.6,8.1,8.1V96.4z"/>
<path class="st0" d="M103.4,49.6c0-0.1,0-0.2,0-0.2l-2.2-14.1c-0.1-0.7-0.8-1.3-1.5-1.3H30.4c-0.7,0-1.4,0.5-1.5,1.3l-2.2,14.1
	c0,0.1,0,0.2,0,0.2c0,3.6,2.6,6.6,6,7.4v15h-2c-0.8,0-1.5,0.7-1.5,1.5v10.4c0,0.8,0.7,1.5,1.5,1.5h71c0.8,0,1.5-0.7,1.5-1.5V73.5
	c0-0.8-0.7-1.5-1.5-1.5h-4.2V57C100.9,56.2,103.4,53.2,103.4,49.6z M100.4,49.7c-0.1,2.5-2.1,4.5-4.6,4.5c-2.5,0-4.6-2-4.6-4.6V37.1
	h7.3L100.4,49.7z M42,37.1h9.2v12.5c0,2.5-2.1,4.6-4.6,4.6c-2.5,0-4.6-2-4.6-4.6V37.1z M54.3,37.1h9.2v12.5c0,2.5-2.1,4.6-4.6,4.6
	c-2.5,0-4.6-2-4.6-4.6V37.1z M66.6,37.1h9.2v12.5c0,2.5-2.1,4.6-4.6,4.6c-2.5,0-4.6-2-4.6-4.6V37.1z M78.9,37.1h9.2v12.5
	c0,2.5-2.1,4.6-4.6,4.6c-2.5,0-4.6-2-4.6-4.6V37.1z M29.8,49.7l2-12.6H39v12.5c0,2.5-2.1,4.6-4.6,4.6C31.9,54.2,29.8,52.2,29.8,49.7
	z M100.2,82.4H32.2V75h67.9V82.4z M35.7,72V57.1c2-0.3,3.7-1.4,4.8-3c1.4,1.9,3.6,3.1,6.1,3.1c2.5,0,4.7-1.2,6.1-3.1
	c1.4,1.9,3.6,3.1,6.1,3.1c2.5,0,4.7-1.2,6.1-3.1c1.4,1.9,3.6,3.1,6.1,3.1c2.5,0,4.7-1.2,6.1-3.1c1.4,1.9,3.6,3.1,6.1,3.1
	c2.5,0,4.7-1.2,6.1-3.1c1.1,1.5,2.8,2.6,4.8,3V72H35.7z"/>
</svg>
