<svg width="1440" height="1001" viewBox="0 0 1440 1001" fill="none" xmlns="http://www.w3.org/2000/svg">
<path d="M918.116 946C923.841 949.846 929.948 954.077 936.055 957.923C952.466 942.154 968.497 927.154 983 916L704 974.077L708.58 1001L815.829 992.538C868.499 952.923 889.491 927.154 918.116 946Z" fill="#28160D"/>
<path d="M776 914.857L1488 325V605.701L796.321 961L776 905.244" fill="#28160D"/>
<path d="M588.041 905.75L-23 329V627.147L569.21 955.186L638 964" fill="#28160D"/>
<path d="M729.761 883H641.325L479 -968L894 -966.082L729.761 883Z" fill="#28160D"/>
<path d="M768.707 932L725 884.075L1424.69 -749.585L1493.32 -934L1496 -97.4247L768.707 932Z" fill="#28160D"/>
<path d="M646 876.219L595.336 918L-23 -93.1874L-15.3236 -920L49.926 -737.158L646 876.219Z" fill="#28160D"/>
<path d="M1076.07 912.702L1091.39 897.077L1120.86 911.559L1168.33 884.882L1186.71 906.986L1204.7 891.361L1290.84 920.705L1350.95 903.175L1409.52 927.564L1439.76 947L1488 814L1042 905.461C1050.81 913.083 1060.76 920.705 1070.71 928.327L1076.07 912.702Z" fill="#28160D"/>
</svg>
