<svg height='100px' width='100px'  fill="#FFFFFF" xmlns="http://www.w3.org/2000/svg" viewBox="0 0 100 100" x="0px" y="0px"><title>Artboard 18@TNP_10-05-21</title><g data-name="Layer 18"><path d="M68.91,64.88a2,2,0,0,1-2,1.56,2.3,2.3,0,0,1-.45,0L43.27,61.06a2,2,0,0,1,.89-3.9L67.4,62.49A2,2,0,0,1,68.91,64.88Zm17.68-1.74V76.87a2,2,0,0,1-.75,1.57,2,2,0,0,1-1.25.43,1.61,1.61,0,0,1-.44-.05l-35-8V87.6a2,2,0,0,1-2,2,1.69,1.69,0,0,1-.38,0L33.4,87a2,2,0,0,1-1.62-2V66.82l-5.93-1.36H9.54a2,2,0,0,1-2-2V57.21a9.52,9.52,0,0,1,0-18.63V32.32a2,2,0,0,1,2-2H25.85L84.15,17a2,2,0,0,1,2.44,1.95V32.64a15.38,15.38,0,0,1,0,30.5ZM45.13,69.89l-9.35-2.14V83.39l9.35,1.79ZM7.54,53.05V42.74a5.52,5.52,0,0,0,0,10.31Zm4,8.41H24.08V34.32H11.54V61.46Zm71.05,12.9V61.3h0V34.5h0V21.42L28.08,33.91v28ZM96,47.88a11.41,11.41,0,0,0-9.41-11.21V59.11A11.43,11.43,0,0,0,96,47.88Z"></path></g></svg>