<svg width="1440" height="164" viewBox="0 0 1440 164" fill="none" xmlns="http://www.w3.org/2000/svg">
<path d="M383 84L278.872 32.5565C270.419 28.2696 260.813 27.1004 251.591 28.6593L192.803 39.5715L171.286 60.2269C162.448 68.8008 149 69.1905 139.394 61.7857L129.404 53.9913C122.872 48.9249 114.419 47.7557 107.118 50.4838L53.3251 71.1391L7.60098 46.1968L-2.5 84" stroke="#A06229" stroke-width="6" stroke-miterlimit="10"/>
<path d="M935 98.2855L996.064 42.971C1010.75 30.0007 1033.17 29.6192 1048.24 42.208L1158 133" stroke="#A06229" stroke-width="6" stroke-miterlimit="10" stroke-linecap="round" stroke-linejoin="round"/>
<path d="M1066 54.8295L1090.99 32.8471L1118.67 51.3586L1152.51 26.2909C1159.05 21.2773 1168.66 22.0487 1174.04 28.2192L1189.04 44.4168L1200.95 35.5466C1206.34 31.3044 1213.26 30.5332 1219.79 32.8471L1294 61" stroke="#A06229" stroke-width="6" stroke-miterlimit="10" stroke-linecap="round" stroke-linejoin="round"/>
<path d="M801 115.503C801 117.798 801 119.71 801 122.005C800.616 126.977 800.232 131.566 799.464 136.156L767.978 154.897L698.863 195.82C685.808 203.469 669.297 202.704 657.394 193.143L589.815 143.805L572.152 130.802C571.384 126.212 571.384 121.623 571 117.033C571 116.651 571 115.886 571 115.503C571 110.149 571.384 105.177 572.152 99.8223C572.92 92.938 574.456 86.4361 576.76 79.9343C578.679 74.5798 580.599 69.2255 583.287 63.871C586.743 57.3692 590.583 50.8672 595.19 45.1303C598.646 40.5408 602.486 36.3338 606.71 32.1267C612.085 27.1547 617.461 22.5652 623.604 18.7406C628.596 15.6809 633.588 13.0037 638.579 10.3265C644.723 7.64926 651.25 5.35443 658.162 3.44212C663.538 1.91228 669.297 1.14741 675.057 0.382484C678.513 2.33379e-05 682.352 0 686.192 0C690.8 0 695.407 0.382508 700.015 0.764968C705.775 1.52989 711.534 2.67725 716.91 4.20709C723.437 6.1194 729.581 8.41412 735.341 11.0913C740.716 13.3861 745.708 16.4458 750.316 19.5055C757.227 24.0951 763.371 29.4495 769.13 35.1864C772.97 39.3935 776.81 43.6006 780.265 48.5726C784.489 54.692 788.329 60.8113 791.401 67.6956C793.705 73.0501 795.624 78.4045 797.16 83.7589C799.08 90.2607 800.232 97.1451 801 104.029C800.616 108.236 801 112.061 801 115.503Z" fill="#AF6728"/>
<path d="M1442 95.1347L1405.47 64.2061L1384.7 61.943L1369.32 51.7591C1356.25 42.7068 1338.94 41.5753 1324.72 48.3645L1298.57 60.4343L1248.58 92.1173L1143.22 144.545L1074 180" stroke="#B66F2C" stroke-width="6" stroke-miterlimit="10" stroke-linejoin="round"/>
<path d="M1335 206.761L1313.93 187.041L1259.92 214.724C1258.39 215.483 1256.48 215.862 1254.94 215.483L1125.86 188.937C1125.09 188.937 1124.71 188.558 1123.95 188.558L1098.28 176.422L1083.73 181.731C1081.43 182.49 1078.75 182.111 1076.83 180.973L1027.04 147.601C1021.67 143.808 1014.4 143.808 1008.65 146.842L1005.2 148.738C1002.52 150.255 999.074 150.255 996.393 147.98L920.551 87.6821C911.358 80.4767 898.717 79.7184 888.375 85.4068L783.039 147.221L751.63 165.804L704.516 193.488C686.896 203.727 665.063 202.589 648.975 190.074L601.095 155.565L585.008 144.188L473.16 63.7906C458.604 53.1722 439.069 52.0344 423.365 61.136L378.932 86.1652C378.549 86.5445 378.166 86.5445 377.783 86.9237L194.307 149.876L138 217" stroke="#AF6728" stroke-width="6" stroke-miterlimit="10"/>
</svg>
