<?xml version="1.0" encoding="utf-8"?>
<!-- Generator: Adobe Illustrator 25.2.1, SVG Export Plug-In . SVG Version: 6.00 Build 0)  -->
<svg version="1.1" id="Layer_1" xmlns="http://www.w3.org/2000/svg" xmlns:xlink="http://www.w3.org/1999/xlink" x="0px" y="0px"
	 viewBox="0 0 141.4 122.3" style="enable-background:new 0 0 141.4 122.3;" xml:space="preserve">
<style type="text/css">
	.st0{fill:#CE812B;}
</style>
<path class="st0" d="M131.8,41.3h-12.2c-1.1,0-1.8,0.7-1.8,1.8c0,1.1,0.7,1.8,1.8,1.8h12.2c1,0,1.8-0.7,1.8-1.8
	C133.6,42,132.9,41.3,131.8,41.3z"/>
<path class="st0" d="M140.6,72.1l-24.2-14h22.7c1.1,0,1.8-0.7,1.8-1.8V1.8c0-1-0.7-1.8-1.8-1.8H11.3c-1,0-1.8,0.7-1.8,1.8v36.9
	c0,0.2,0,0.3,0.2,0.3L0.2,55.1c-0.2,0.3-0.4,0.9-0.2,1.4s0.4,0.9,0.9,1l110.4,64.6c0.3,0.2,0.5,0.2,0.9,0.2c0.2,0,0.3,0,0.5,0
	c0.5-0.2,0.9-0.3,1-0.9l27.3-47.1C141.6,73.7,141.3,72.6,140.6,72.1z M112.6,3.5h24.8v50.9h-24.8V3.5z M13,3.5h95.9v50.2l-15.6-9.1
	h4.2c1,0,1.8-0.7,1.8-1.8s-0.7-1.8-1.8-1.8h-9.8c-0.2,0-0.2,0-0.3,0l-10-5.8h20.1c1,0,1.8-0.7,1.8-1.8c0-1-0.7-1.8-1.8-1.8H72h-0.2
	l-10-5.8h35.9c1.1,0,1.8-0.7,1.8-1.8s-0.7-1.8-1.8-1.8H56.2c-0.2,0-0.2,0-0.3,0l-10-5.8h51.8c1.1,0,1.8-0.7,1.8-1.8
	s-0.7-1.8-1.8-1.8H40L30,7.5c-0.9-0.5-1.9-0.2-2.5,0.7l-3,5.2h-3.3c-1,0-1.8,0.7-1.8,1.8c0,1.1,0.7,1.8,1.8,1.8h1.4L13,33.2V3.5z
	 M4.1,55.5l25.7-43.9l83,48.3L87,103.9L4.1,55.5z M111.5,118.1L90,105.5l25.7-43.9l21.5,12.6L111.5,118.1z"/>
<path class="st0" d="M98.1,62.7L32.6,24.5c-0.9-0.5-1.9-0.2-2.4,0.7c-0.5,0.9-0.2,1.9,0.7,2.5l65.4,38.2c0.4,0.2,0.5,0.2,0.9,0.2
	c0.5,0,1.2-0.3,1.6-0.9C99.1,64.2,98.9,63.2,98.1,62.7z"/>
<path class="st0" d="M93.3,70.7L27.9,32.6C27,32,26,32.4,25.4,33.2c-0.5,0.9-0.2,1.9,0.7,2.4l65.4,38.2c0.3,0.2,0.5,0.2,0.9,0.2
	c0.5,0,1.2-0.3,1.6-0.9C94.6,72.3,94.2,71.2,93.3,70.7z"/>
<path class="st0" d="M88.8,78.8L23.2,40.4c-0.9-0.5-1.9-0.2-2.5,0.7c-0.5,0.9-0.2,1.9,0.7,2.4l65.5,38.2c0.3,0.2,0.5,0.2,0.9,0.2
	c0.5,0,1.2-0.3,1.6-0.9C89.8,80.3,89.5,79.3,88.8,78.8z"/>
<path class="st0" d="M35.2,58.1l-16.6-9.6c-0.9-0.5-1.9-0.2-2.5,0.7c-0.5,0.9-0.2,1.9,0.7,2.5l16.6,9.6c0.3,0.2,0.5,0.2,0.9,0.2
	c0.5,0,1.2-0.3,1.6-0.9C36.3,59.7,36.1,58.6,35.2,58.1z"/>
<path class="st0" d="M59.6,72.4l-16.6-9.6c-0.9-0.5-1.9-0.2-2.5,0.7s-0.2,1.9,0.7,2.4l16.6,9.6c0.4,0.2,0.5,0.2,0.9,0.2
	c0.5,0,1.2-0.3,1.6-0.9C60.8,74,60.4,73,59.6,72.4z"/>
<path class="st0" d="M113.5,104.1L103,98c-0.9-0.5-1.9-0.2-2.4,0.7s-0.2,1.9,0.7,2.4l10.5,6.1c0.3,0.2,0.5,0.2,0.9,0.2
	c0.5,0,1.2-0.3,1.6-0.9C114.5,105.5,114.2,104.5,113.5,104.1z"/>
<path class="st0" d="M84.1,86.6L67.4,77c-0.9-0.5-1.9-0.2-2.4,0.7s-0.2,1.9,0.7,2.5l16.6,9.6c0.4,0.2,0.5,0.2,0.9,0.2
	c0.5,0,1.2-0.3,1.6-0.9C85.1,88.2,84.9,87.2,84.1,86.6z"/>
<path class="st0" d="M111.5,78.9c-0.2,0-0.2,0.2-0.2,0.3c0,0.2,0,0.5,0.2,0.5l3.5,3.1l-0.9,4.6c0,0.2,0,0.3,0.2,0.5
	c0.2,0.2,0.3,0.2,0.5,0l4-2.3l4.2,2.1c0.3,0.2,0.9-0.2,0.9-0.7l-0.9-4.6l3.3-3.3c0.2-0.2,0.2-0.3,0.2-0.5s-0.2-0.3-0.5-0.3l-4.7-0.5
	l-2.1-4.2c-0.2-0.2-0.4-0.4-0.5-0.4c-0.2,0-0.4,0.2-0.5,0.4l-1.9,4.2l-4.5,0.9C111.7,78.8,111.5,78.8,111.5,78.9z"/>
<path class="st0" d="M122.4,28.5c0,0.2,0,0.2,0.2,0.2c0,0.2,0.2,0.2,0.4,0.2s0.5,0,0.5-0.2l3.2-3.3l4.5,0.7c0.2,0,0.4,0,0.5-0.2
	c0.2-0.2,0.2-0.4,0-0.5l-2.3-4l2.1-4.2c0.2-0.4-0.2-0.9-0.7-0.9l-4.5,0.9l-3.3-3.3c-0.2-0.2-0.4-0.2-0.5-0.2c-0.2,0-0.3,0.2-0.3,0.5
	l-0.5,4.7l-4,2.1c-0.2,0.2-0.4,0.3-0.4,0.5c0,0.2,0.2,0.3,0.4,0.5l4.2,1.9L122.4,28.5z"/>
</svg>
